<?xml version="1.0" standalone="no"?>
<!DOCTYPE svg PUBLIC "-//W3C//DTD SVG 20010904//EN"
 "http://www.w3.org/TR/2001/REC-SVG-20010904/DTD/svg10.dtd">
<svg version="1.0" xmlns="http://www.w3.org/2000/svg"
 width="500.000000pt" height="500.000000pt" viewBox="0 0 500.000000 500.000000"
 preserveAspectRatio="xMidYMid meet">
<metadata>
Created by potrace 1.14, written by Peter Selinger 2001-2017
</metadata>
<g transform="translate(0.000000,500.000000) scale(0.100000,-0.100000)"
fill="#000000" stroke="none">
<path d="M2865 4990 c-3 -6 1 -17 9 -25 12 -13 22 -13 58 -4 24 6 76 13 116
15 40 2 80 8 90 13 12 7 -25 10 -125 11 -85 0 -144 -4 -148 -10z"/>
<path d="M3253 4993 c9 -2 25 -2 35 0 9 3 1 5 -18 5 -19 0 -27 -2 -17 -5z"/>
<path d="M3757 4729 c-24 -28 -17 -32 35 -22 28 6 44 14 46 26 5 26 -58 23
-81 -4z"/>
<path d="M1114 4232 c3 -6 -8 -13 -26 -18 -32 -6 -82 -26 -122 -46 -10 -5 -36
-11 -57 -13 -22 -2 -51 -13 -66 -25 -18 -14 -29 -17 -33 -9 -6 8 -13 8 -29 0
-11 -7 -21 -8 -21 -4 0 4 -8 -2 -18 -13 -9 -12 -41 -42 -70 -68 -29 -25 -48
-46 -42 -46 6 0 8 -5 5 -11 -4 -6 -10 -8 -13 -5 -7 7 -52 -34 -52 -46 0 -5
-30 -40 -67 -77 -91 -90 -103 -106 -92 -122 5 -8 9 -9 9 -4 0 6 16 17 35 23
19 7 32 18 30 25 -3 7 4 23 15 37 21 27 27 12 9 -21 -9 -18 -9 -19 9 -10 11 6
22 14 24 18 5 13 86 73 97 73 6 0 11 5 11 11 0 6 9 9 20 6 10 -3 21 0 24 7 3
6 4 2 1 -10 -3 -13 3 -27 17 -41 13 -11 28 -29 35 -39 10 -16 11 -16 7 -1 -4
9 -2 17 3 17 5 0 19 9 31 20 12 12 22 17 22 13 0 -4 4 -14 9 -21 14 -23 67 11
74 48 7 32 33 41 39 13 3 -15 6 -14 26 7 18 20 22 21 22 7 0 -10 -11 -22 -24
-26 -28 -11 -36 -30 -36 -79 l1 -37 14 33 c8 18 19 31 25 27 5 -3 10 1 10 10
0 9 5 13 10 10 6 -4 8 -11 5 -16 -4 -5 1 -9 9 -9 9 0 16 -4 16 -10 0 -5 -7 -7
-15 -4 -17 7 -19 -4 -5 -26 9 -13 11 -13 20 0 5 8 10 20 10 26 0 13 48 25 52
14 2 -4 15 -10 30 -13 18 -5 28 -3 30 7 2 10 9 11 28 3 20 -8 22 -11 8 -14
-10 -3 -18 -9 -18 -14 0 -5 14 -3 30 6 17 9 30 20 30 26 0 6 7 6 20 -1 21 -11
21 -11 -2 -31 -21 -19 -21 -20 -3 -14 11 4 36 11 55 16 19 4 36 13 38 18 2 6
12 11 22 11 9 0 25 10 33 23 14 19 18 20 26 7 9 -13 11 -12 11 4 0 15 3 16 15
6 13 -10 15 -9 15 9 0 11 -5 21 -12 21 -20 0 3 15 25 16 71 4 133 33 105 50
-7 5 -4 10 12 16 14 5 28 4 36 -3 8 -6 26 -9 41 -6 31 6 83 -25 83 -49 0 -8 5
-14 11 -14 7 0 9 -11 5 -27 -3 -16 -3 -23 0 -17 2 6 20 10 39 8 19 -1 35 2 35
7 0 4 7 6 16 2 8 -3 13 -12 10 -20 -3 -8 -1 -11 5 -8 12 8 39 -13 39 -30 0 -7
-8 -12 -17 -11 -12 1 -22 -11 -30 -34 -6 -19 -12 -31 -12 -26 -1 5 -8 3 -17
-5 -13 -10 -17 -10 -26 2 -7 11 -9 9 -5 -8 3 -15 1 -20 -8 -17 -15 6 -40 -59
-30 -76 3 -5 1 -10 -4 -10 -6 0 -11 9 -11 20 0 11 -7 20 -16 20 -11 0 -14 6
-9 23 7 21 7 21 -11 4 -18 -17 -18 -19 -1 -31 23 -18 22 -29 -3 -16 -16 9 -20
8 -20 -5 0 -8 5 -15 10 -15 6 0 10 -4 10 -9 0 -4 -10 -8 -22 -8 -37 0 -58 -14
-58 -39 0 -13 -4 -24 -10 -24 -5 0 -10 5 -10 10 0 20 -21 9 -30 -15 -6 -15
-17 -25 -30 -25 -13 0 -20 -7 -20 -20 0 -11 -6 -19 -12 -18 -7 2 -13 -4 -13
-12 0 -18 -48 -50 -76 -50 -11 0 -17 -4 -14 -10 3 -5 2 -10 -4 -10 -5 0 -12 8
-14 18 -3 12 -5 10 -6 -7 -1 -21 2 -23 28 -18 23 5 30 2 40 -20 11 -24 10 -25
-14 -21 -30 6 -31 -1 -6 -30 11 -14 30 -22 50 -22 42 0 40 -17 -3 -22 -75 -9
-191 -3 -189 9 3 14 -53 -2 -63 -18 -3 -5 -10 -7 -15 -4 -5 4 -9 2 -9 -4 0 -5
6 -12 13 -14 7 -3 4 -6 -6 -6 -10 -1 -15 -5 -12 -11 3 -5 0 -10 -8 -10 -8 0
-20 -6 -26 -14 -7 -8 -26 -18 -42 -21 -16 -4 -29 -10 -29 -15 0 -4 -9 -10 -21
-13 -12 -3 -18 -10 -15 -16 4 -6 13 -8 21 -4 18 6 65 -4 65 -16 0 -4 -7 -8
-15 -8 -8 0 -12 4 -9 9 3 4 1 8 -5 8 -5 0 -13 -4 -16 -10 -3 -5 -15 -10 -26
-10 -11 0 -18 -4 -15 -9 3 -5 -13 -14 -37 -20 -57 -15 -81 -31 -47 -31 19 0
22 -2 10 -9 -8 -6 -18 -7 -24 -4 -5 3 -14 -1 -20 -9 -6 -8 -28 -20 -48 -27
-25 -8 -35 -17 -31 -27 3 -8 -1 -14 -8 -15 -8 0 -23 -2 -34 -4 -11 -2 -43 -1
-72 4 -29 4 -50 4 -47 -1 3 -4 0 -8 -6 -8 -7 0 0 -14 15 -32 15 -18 23 -34 17
-36 -6 -2 -8 -10 -5 -18 3 -9 -2 -14 -16 -14 -12 0 -21 -4 -21 -10 0 -16 -51
-37 -106 -45 -29 -3 -60 -14 -70 -23 -11 -9 -34 -29 -52 -45 -19 -15 -31 -27
-27 -27 3 0 -1 -10 -9 -22 -18 -25 -21 -109 -6 -124 6 -6 11 -31 12 -55 1 -48
25 -129 39 -129 17 0 9 -29 -13 -44 l-22 -16 21 -22 c22 -21 23 -21 43 -3 21
19 21 19 54 -15 18 -19 31 -42 29 -50 -3 -12 46 -51 67 -52 8 -1 28 -32 26
-43 0 -5 -5 -10 -11 -11 -21 -1 -55 -16 -55 -23 0 -5 6 -14 14 -20 13 -11 12
-15 -5 -32 -11 -11 -17 -24 -13 -30 4 -6 19 2 37 21 17 17 33 27 36 23 3 -4
20 -10 36 -12 37 -4 37 -3 41 -41 2 -18 6 -35 8 -38 2 -4 0 -17 -5 -30 -7 -19
-12 -21 -28 -12 -26 13 -31 13 -31 -5 0 -8 -7 -15 -15 -15 -8 0 -15 -5 -15
-11 0 -6 -6 -9 -14 -6 -10 4 -16 -6 -20 -34 -4 -23 -11 -38 -19 -36 -6 1 -11
-4 -9 -10 1 -7 -4 -13 -11 -13 -10 0 -14 19 -16 68 -5 124 0 163 23 185 19 17
19 17 -2 17 -11 0 -23 -6 -25 -12 -3 -8 -6 -5 -6 5 -1 10 -6 15 -12 12 -6 -4
-8 -14 -5 -22 4 -10 2 -13 -7 -10 -7 3 -23 -11 -36 -31 -18 -27 -19 -33 -7
-29 11 5 16 1 16 -13 0 -10 -5 -22 -10 -25 -6 -4 -10 -23 -9 -43 3 -53 -2
-109 -8 -94 -2 6 -8 10 -11 8 -4 -2 -8 17 -10 42 -1 25 -7 49 -13 53 -6 3 -12
18 -12 33 -1 14 -5 26 -9 26 -5 0 -8 11 -8 25 0 14 -5 25 -10 25 -6 0 -9 3 -8
8 7 19 -16 14 -23 -5 -6 -18 -5 -23 7 -23 9 0 14 -6 11 -12 -2 -8 -16 -12 -32
-10 -16 2 -47 -3 -69 -11 -23 -8 -63 -20 -90 -27 -27 -6 -61 -17 -77 -25 -15
-8 -48 -16 -73 -17 l-46 -3 0 -247 c0 -137 2 -248 5 -248 3 0 29 12 57 26 77
39 123 53 139 43 12 -7 11 -9 -2 -9 -20 0 -69 -23 -69 -32 0 -5 -6 -8 -12 -8
-33 0 -88 -22 -82 -32 5 -7 2 -8 -6 -3 -7 4 -16 2 -21 -6 -12 -20 -12 -172 1
-164 5 3 10 2 10 -4 0 -5 -5 -13 -10 -16 -6 -4 -10 -213 -10 -596 l0 -589
2049 0 2048 0 84 39 c171 79 353 118 508 109 131 -8 194 -30 257 -92 l54 -52
0 168 c0 92 -2 168 -5 168 -2 0 -15 -5 -29 -11 -18 -8 -29 -9 -38 -2 -7 6 -27
14 -44 17 -22 5 -37 18 -54 48 -12 22 -35 54 -50 72 -15 17 -30 45 -33 63 -6
29 -3 34 38 57 24 14 51 33 59 42 10 9 24 13 36 9 25 -8 26 -25 1 -25 -11 0
-23 -12 -31 -30 -7 -17 -16 -31 -21 -31 -5 -1 -13 -3 -19 -4 -5 -1 -14 -3 -20
-4 -5 0 -10 -6 -10 -11 0 -12 113 -4 145 10 11 5 32 11 48 14 21 5 27 12 27
31 0 25 -14 33 -25 15 -3 -5 -14 -10 -23 -9 -11 0 -12 3 -4 6 6 2 12 9 12 14
0 6 -7 6 -19 0 -22 -12 -31 -5 -31 25 0 15 5 22 13 19 6 -3 22 11 35 30 12 19
27 35 32 35 6 0 10 18 10 40 0 33 -3 39 -14 33 -16 -9 -83 -64 -121 -99 -12
-11 -27 -18 -33 -16 -5 1 -13 -1 -16 -7 -4 -5 -17 1 -31 15 -20 20 -28 22 -43
13 -32 -20 -45 -48 -31 -65 6 -8 9 -17 6 -20 -3 -3 -13 6 -23 21 -16 25 -16
30 -2 68 12 33 20 42 39 42 15 0 28 9 36 25 6 13 27 30 46 36 19 7 56 29 83
49 47 36 73 34 41 -3 -21 -25 -10 -42 29 -42 30 0 34 3 34 25 0 14 -6 25 -14
25 -9 0 -12 8 -8 25 3 19 0 25 -13 25 -10 0 -14 5 -11 13 3 6 9 20 12 30 4 9
13 17 20 17 19 0 21 379 2 399 -10 11 -10 14 0 18 9 4 12 186 12 868 l0 863
-48 -10 c-26 -5 -62 -16 -81 -25 -18 -8 -50 -15 -70 -16 -20 0 -40 -3 -46 -7
-5 -4 -48 -7 -95 -6 -47 1 -104 -3 -127 -10 -28 -9 -45 -9 -49 -3 -3 6 -10 6
-17 1 -7 -5 -27 -13 -46 -17 -19 -4 -44 -16 -55 -27 -11 -10 -32 -22 -46 -25
-14 -3 -41 -17 -60 -30 -19 -12 -44 -23 -55 -23 -11 0 -31 -7 -44 -17 -16 -11
-49 -17 -100 -19 -42 -1 -87 -5 -101 -9 -46 -11 -85 -16 -125 -14 -22 0 -64 1
-94 0 -36 -1 -60 4 -71 14 -11 10 -44 17 -96 19 -43 3 -81 5 -84 6 -10 4 -55
-2 -65 -8 -5 -4 -18 -5 -28 -4 -10 2 -24 -2 -32 -8 -7 -6 -19 -10 -27 -9 -19
4 -98 -23 -98 -33 0 -4 -8 -3 -19 4 -15 9 -25 7 -53 -10 -19 -12 -38 -19 -41
-16 -3 3 -12 2 -19 -2 -7 -5 -26 -10 -43 -11 -132 -10 -159 -14 -182 -33 -19
-15 -30 -17 -44 -9 -19 10 -76 0 -124 -22 -11 -5 -53 -10 -94 -12 l-74 -2 4
85 c6 155 4 178 -21 205 -13 14 -29 25 -36 25 -25 0 -44 32 -44 73 -1 23 -10
67 -21 97 -11 30 -22 64 -25 75 -45 168 -72 249 -100 300 -13 25 -21 51 -18
59 3 7 -2 16 -10 19 -9 4 -16 14 -16 22 0 9 -7 23 -15 31 -8 9 -15 24 -15 35
0 10 -4 19 -10 19 -5 0 -10 8 -10 19 0 19 -47 58 -64 53 -14 -4 -26 19 -26 51
0 17 -5 27 -15 27 -8 0 -15 -5 -15 -11 0 -5 4 -7 10 -4 6 3 7 -1 4 -9 -7 -18
-24 -22 -24 -5 0 5 -5 7 -11 3 -8 -4 -9 1 -4 15 9 29 -17 58 -59 67 -17 3 -41
15 -53 26 -13 12 -41 22 -70 25 -27 3 -61 15 -78 28 -60 44 -180 107 -231 120
-29 7 -63 19 -76 27 -14 8 -77 16 -158 20 -74 4 -157 10 -184 14 -32 4 -46 3
-42 -4z m791 -230 c-3 -3 -11 0 -18 7 -9 10 -8 11 6 5 10 -3 15 -9 12 -12z
m45 -12 c0 -5 -7 -7 -15 -4 -8 4 -15 8 -15 10 0 2 7 4 15 4 8 0 15 -4 15 -10z
m-920 -54 c0 -2 -7 -7 -16 -10 -8 -3 -12 -2 -9 4 6 10 25 14 25 6z m-288 -53
c-6 -2 -10 -9 -7 -14 4 -5 -1 -6 -10 -2 -13 5 -14 7 -3 14 7 5 18 8 23 8 6 0
4 -3 -3 -6z m358 -3 c0 -5 -5 -10 -11 -10 -5 0 -7 -5 -3 -12 5 -8 2 -9 -10 -5
-10 4 -20 7 -24 7 -8 0 31 29 41 30 4 0 7 -4 7 -10z m37 -16 c-3 -3 -12 -4
-19 -1 -8 3 -5 6 6 6 11 1 17 -2 13 -5z m-577 -13 c0 -5 -7 -11 -14 -14 -10
-4 -13 -1 -9 9 6 15 23 19 23 5z m727 -47 c-3 -3 -12 -4 -19 -1 -8 3 -5 6 6 6
11 1 17 -2 13 -5z m633 -15 c0 -4 -6 -10 -12 -13 -7 -3 0 -3 17 0 16 3 27 2
23 -2 -4 -3 -3 -15 3 -25 6 -11 6 -19 0 -19 -5 0 -11 7 -14 15 -4 8 -15 12
-28 10 -24 -5 -49 10 -49 30 0 6 13 12 30 12 17 0 30 -4 30 -8z m0 -58 c0 -18
-18 -21 -30 -6 -10 13 -9 15 9 15 11 0 21 -4 21 -9z m-37 -45 c4 -10 1 -13 -8
-9 -8 3 -12 9 -9 14 7 12 11 11 17 -5z m87 -6 c0 -5 -4 -10 -10 -10 -5 0 -10
5 -10 10 0 6 5 10 10 10 6 0 10 -4 10 -10z m-603 -517 c-14 -16 -14 -19 1 -33
9 -8 23 -15 31 -15 16 0 24 -32 10 -41 -5 -3 -9 0 -9 7 0 7 -4 8 -12 2 -12 -8
-19 -9 -55 -5 -7 1 -10 9 -6 18 3 9 13 14 24 11 12 -3 16 0 12 9 -6 15 -20 20
-85 30 -58 8 -63 21 -8 22 23 1 38 -3 35 -9 -7 -11 1 -11 34 -2 23 6 23 7 5
14 -16 6 -14 8 10 8 27 1 28 0 13 -16z m-152 -23 c4 -6 -10 -9 -37 -9 l-43 2
35 7 c19 4 36 8 37 9 1 0 5 -3 8 -9z m255 -24 c0 -2 -9 -6 -20 -9 -11 -3 -18
-1 -14 4 5 9 34 13 34 5z m-260 -35 c0 -6 -9 -9 -20 -8 -11 1 -20 5 -20 9 0 4
9 8 20 8 11 0 20 -4 20 -9z m-343 -123 c-3 -8 -6 -5 -6 6 -1 11 2 17 5 13 3
-3 4 -12 1 -19z m383 -528 c0 -5 6 -7 14 -4 8 3 23 -7 35 -25 15 -20 18 -30 9
-33 -21 -7 -18 -70 3 -89 15 -13 16 -18 7 -22 -8 -4 -7 -6 5 -6 15 -1 21 -18
20 -59 -1 -7 10 -15 23 -18 13 -3 24 -10 24 -16 0 -5 -4 -6 -10 -3 -14 9 -13
-8 2 -23 9 -9 8 -12 -5 -12 -16 0 -16 -2 2 -22 22 -23 36 -56 28 -65 -5 -4
-28 -10 -49 -12 -5 -1 -8 -6 -8 -12 0 -5 5 -7 10 -4 6 3 10 1 10 -5 0 -6 -6
-10 -12 -9 -31 4 -48 -2 -48 -16 0 -16 -54 -48 -64 -38 -3 4 -12 0 -19 -9 -18
-23 -66 -34 -129 -30 -57 4 -58 4 -58 34 0 21 11 43 34 68 26 29 35 50 41 91
3 30 11 70 17 89 5 19 13 62 18 95 14 102 26 136 58 154 22 13 42 14 42 1z
m288 -407 c6 -19 -33 -16 -49 3 -11 14 -9 15 16 12 16 -1 30 -9 33 -15z m-768
-27 c0 -13 3 -33 7 -43 6 -15 4 -16 -9 -6 -16 14 -23 73 -7 73 5 0 9 -11 9
-24z m1990 -6 c0 -5 -5 -10 -11 -10 -5 0 -7 5 -4 10 3 6 8 10 11 10 2 0 4 -4
4 -10z m557 -12 c-3 -8 -6 -5 -6 6 -1 11 2 17 5 13 3 -3 4 -12 1 -19z m353 2
c0 -5 -10 -10 -22 -9 -22 0 -22 1 -3 9 11 5 21 9 23 9 1 1 2 -3 2 -9z m-390
-28 c0 -14 -49 -67 -55 -60 -3 3 7 19 22 37 29 33 33 36 33 23z m290 -46 c0
-3 -4 -8 -10 -11 -5 -3 -10 -1 -10 4 0 6 5 11 10 11 6 0 10 -2 10 -4z m-340
-42 c0 -8 -5 -12 -10 -9 -6 4 -8 11 -5 16 9 14 15 11 15 -7z m178 -22 c-7 -8
-14 -10 -21 -3 -7 7 -6 15 3 26 10 12 15 13 21 3 4 -7 3 -18 -3 -26z m-262 2
c-4 -9 -9 -15 -11 -12 -3 3 -3 13 1 22 4 9 9 15 11 12 3 -3 3 -13 -1 -22z
m184 -19 c0 -8 -2 -15 -4 -15 -2 0 -6 7 -10 15 -3 8 -1 15 4 15 6 0 10 -7 10
-15z m-236 -14 c3 -5 -1 -12 -10 -15 -22 -9 -24 -8 -24 9 0 16 25 21 34 6z
m303 -23 c-3 -8 -6 -5 -6 6 -1 11 2 17 5 13 3 -3 4 -12 1 -19z m-2821 -35
c-10 -10 -19 5 -10 18 6 11 8 11 12 0 2 -7 1 -15 -2 -18z m2716 -45 c-8 -8 -9
-4 -5 13 4 13 8 18 11 10 2 -7 -1 -18 -6 -23z m-185 2 c14 -11 21 -20 15 -20
-6 0 -14 5 -17 10 -3 6 -21 10 -38 10 -24 0 -28 3 -17 10 21 14 29 13 57 -10z
m173 -60 c0 -5 14 -10 31 -10 16 0 28 -4 25 -9 -5 -8 -75 -4 -85 4 -5 6 10 25
20 25 5 0 9 -4 9 -10z m190 -14 c47 -5 153 -47 165 -65 4 -8 -2 -8 -20 -1 -34
13 -45 13 -45 -1 0 -5 4 -8 9 -5 15 10 42 -6 37 -21 -3 -8 -2 -11 4 -8 5 3 8
-3 7 -13 -1 -14 -7 -17 -24 -14 -13 2 -26 8 -28 13 -3 4 -12 6 -20 2 -8 -3
-15 0 -15 7 0 9 10 11 31 6 22 -4 29 -2 27 6 -3 8 -19 12 -42 10 -26 -3 -36 0
-32 7 6 9 -20 10 -44 1 -3 -2 -9 -2 -13 -1 -5 1 -6 -2 -4 -6 3 -5 -6 -22 -19
-38 -13 -17 -24 -24 -24 -17 0 6 -7 12 -16 12 -8 0 -13 -4 -10 -8 3 -5 -5 -7
-17 -6 -12 1 -25 3 -29 3 -5 1 -8 6 -8 12 0 5 4 7 10 4 5 -3 18 -1 27 4 15 9
13 11 -12 11 -26 1 -27 3 -10 10 11 5 16 9 10 9 -5 1 -3 6 5 12 11 7 12 12 3
15 -8 4 -5 12 8 25 12 12 17 24 13 27 -3 4 -9 1 -11 -6 -4 -10 -8 -10 -19 -1
-21 17 -8 28 29 24 17 -2 52 -6 77 -9z m-232 -25 c10 -6 9 -11 -5 -22 -10 -7
-15 -9 -11 -5 4 5 3 15 -3 23 -13 14 -1 17 19 4z m-3015 -16 c-11 -8 -33 -19
-47 -25 -39 -14 -33 7 7 24 44 20 67 20 40 1z m277 11 c0 -2 -8 -10 -17 -17
-16 -13 -17 -12 -4 4 13 16 21 21 21 13z m2770 -20 c0 -2 -7 -7 -16 -10 -8 -3
-12 -2 -9 4 6 10 25 14 25 6z m830 -6 c0 -5 -7 -10 -15 -10 -8 0 -15 5 -15 10
0 6 7 10 15 10 8 0 15 -4 15 -10z m-3623 -31 c-9 -6 -39 -16 -65 -24 -26 -7
-65 -20 -87 -29 -45 -17 -120 -22 -95 -6 8 5 26 7 40 4 17 -4 21 -3 12 4 -10
6 0 13 35 22 26 7 66 18 88 26 22 7 51 13 65 13 22 0 23 -1 7 -10z m3273 -1
c0 -13 -17 -17 -53 -11 -52 8 -46 24 8 21 25 -2 45 -6 45 -10z m-3250 -34 c12
-32 12 -37 0 -29 -5 3 -19 1 -30 -5 -18 -10 -19 -13 -6 -25 19 -19 27 -19 20
0 -5 11 1 15 17 15 18 0 20 -3 10 -9 -9 -6 -10 -10 -2 -12 21 -7 -47 -71 -72
-67 -12 2 -23 9 -23 16 -1 6 -2 15 -3 19 -1 8 -41 -33 -41 -43 0 -4 -8 -13
-17 -21 -16 -12 -15 -13 10 -7 36 8 35 -8 -3 -24 -23 -11 -30 -20 -30 -43 0
-19 -5 -29 -15 -29 -9 0 -15 9 -15 22 0 20 -2 20 -31 -10 -31 -32 -40 -36 -69
-33 -12 1 -12 0 -2 -7 7 -5 14 -19 15 -31 1 -13 6 -20 14 -17 7 3 13 1 13 -4
0 -14 -24 -12 -38 2 -9 9 -12 9 -12 -2 0 -12 -2 -12 -9 -2 -7 11 -11 11 -24
-2 -8 -9 -17 -20 -19 -24 -5 -14 -48 -25 -48 -13 0 6 7 11 15 11 9 0 18 7 21
15 3 8 21 20 40 27 19 6 34 16 34 20 0 4 -2 8 -4 8 -2 0 -12 3 -21 6 -9 4 -15
2 -13 -5 3 -14 -54 -36 -92 -36 -16 0 -24 5 -22 14 2 8 -3 18 -10 22 -8 6 0 7
19 5 18 -2 33 1 33 5 0 5 -6 9 -12 9 -9 0 -8 4 2 10 8 5 26 10 40 10 24 -1 24
-1 6 -15 -11 -8 -16 -18 -11 -22 4 -5 10 -2 12 5 3 6 11 12 18 12 7 0 28 7 46
16 l34 15 -32 -5 c-35 -6 -53 8 -25 19 33 14 62 14 62 0 0 -9 6 -12 15 -9 9 4
17 26 21 55 7 51 12 58 120 146 105 86 100 84 114 47z m2990 16 c0 -5 -8 -10
-17 -10 -15 0 -16 2 -3 10 19 12 20 12 20 0z m-220 -21 c0 -14 -17 -10 -23 5
-4 10 -1 13 9 9 7 -3 14 -9 14 -14z m498 5 c15 -15 14 -16 -6 -10 -13 5 -34 1
-52 -7 -17 -9 -32 -11 -36 -6 -3 5 5 13 18 18 13 4 30 11 38 14 8 3 16 6 18 6
2 1 11 -6 20 -15z m-267 -18 c5 3 12 -2 15 -10 3 -9 11 -13 17 -9 6 4 7 1 2
-7 -6 -10 -10 -10 -19 2 -11 15 -17 18 -37 18 -5 0 -7 5 -3 12 6 9 9 9 12 0 2
-7 8 -10 13 -6z m82 -3 c-7 -2 -19 -2 -25 0 -7 3 -2 5 12 5 14 0 19 -2 13 -5z
m350 -44 c44 -51 183 -125 203 -108 8 6 14 8 14 3 0 -5 7 -1 14 9 9 12 16 14
21 8 3 -6 2 -11 -3 -11 -11 0 -22 -45 -13 -57 14 -19 100 -83 112 -83 7 0 10
-2 8 -5 -3 -2 31 -41 75 -86 76 -77 91 -112 31 -73 -24 16 -25 16 -18 -2 6
-18 6 -18 -14 -1 -11 9 -23 14 -27 10 -4 -4 -4 0 0 10 5 13 2 16 -10 11 -9 -3
-16 -1 -16 5 0 6 -4 11 -9 11 -5 0 -7 -10 -4 -22 3 -13 1 -19 -4 -13 -9 12
-72 13 -89 2 -14 -8 -48 39 -38 54 4 8 9 7 15 -2 4 -8 26 -14 48 -14 30 0 37
3 29 13 -7 8 -7 12 2 12 8 0 11 2 8 5 -3 3 -18 -1 -33 -9 -16 -8 -33 -12 -38
-9 -5 3 1 11 14 18 21 12 22 13 3 17 -10 2 -27 0 -36 -6 -11 -7 -24 -6 -40 1
-23 11 -23 12 7 13 26 1 27 3 10 10 -15 6 -16 9 -4 9 9 1 19 -2 23 -6 12 -12
45 -10 50 4 3 7 12 10 20 7 8 -3 17 0 22 7 5 9 2 10 -9 6 -10 -4 -20 0 -25 9
-10 19 -77 30 -86 15 -5 -7 -15 -7 -32 -1 -32 13 -35 13 -31 -2 1 -7 -9 -14
-22 -16 -19 -3 -21 -6 -10 -14 10 -7 8 -8 -10 -4 -14 3 -32 0 -40 -7 -12 -10
-13 -9 -7 1 6 10 1 11 -18 6 -28 -7 -37 12 -11 22 8 4 15 12 15 19 0 8 8 16
18 18 14 4 13 5 -4 6 -11 0 -25 -4 -32 -11 -9 -9 -12 -8 -12 5 0 9 6 17 13 17
6 1 25 11 41 24 23 19 37 23 67 19 29 -4 39 -2 39 8 0 14 -20 50 -20 37 0 -3
-23 3 -51 13 -27 11 -55 17 -60 13 -6 -3 -19 2 -29 11 -27 24 -72 8 -85 -31
-5 -16 -10 -30 -11 -32 0 -1 -8 0 -16 3 -13 5 -13 11 -4 31 6 13 14 24 19 24
4 0 7 9 7 21 0 11 -4 18 -9 14 -11 -6 -51 41 -51 61 0 14 20 21 67 23 25 1 38
-7 66 -40z m-343 14 c0 -10 -4 -14 -8 -8 -4 6 -11 13 -16 18 -5 4 -2 7 7 7 10
0 17 -8 17 -17z m198 -13 c1 -33 -15 -50 -24 -26 -5 12 11 56 20 56 2 0 3 -13
4 -30z m399 5 c0 -8 -6 -15 -13 -15 -8 0 -11 6 -8 15 4 8 9 15 13 15 4 0 8 -7
8 -15z m43 11 c0 -3 -4 -8 -10 -11 -5 -3 -10 -1 -10 4 0 6 5 11 10 11 6 0 10
-2 10 -4z m-670 -15 c0 -5 -7 -11 -15 -15 -15 -5 -20 5 -8 17 9 10 23 9 23 -2z
m640 -41 c-6 -11 -13 -20 -15 -20 -3 0 -5 9 -5 20 0 11 7 20 15 20 13 0 14 -4
5 -20z m-670 0 c0 -5 -4 -10 -10 -10 -5 0 -10 5 -10 10 0 6 5 10 10 10 6 0 10
-4 10 -10z m225 0 c3 -5 1 -10 -4 -10 -6 0 -11 5 -11 10 0 6 2 10 4 10 3 0 8
-4 11 -10z m1095 -21 c0 -6 -4 -7 -10 -4 -5 3 -10 11 -10 16 0 6 5 7 10 4 6
-3 10 -11 10 -16z m-22 -19 c12 0 13 -3 4 -12 -9 -9 -15 -9 -24 0 -16 16 -28
15 -28 -3 0 -17 -2 -18 -24 -9 -9 3 -16 12 -16 19 0 14 27 28 40 20 5 -3 12 0
17 7 5 10 8 8 11 -4 2 -10 11 -18 20 -18z m-4418 5 c0 -8 8 -15 18 -15 14 0
15 -2 2 -10 -16 -10 -54 16 -44 31 8 14 24 10 24 -6z m3345 5 c3 -5 2 -10 -4
-10 -5 0 -13 5 -16 10 -3 6 -2 10 4 10 5 0 13 -4 16 -10z m-221 -6 c-7 -3 -9
-15 -7 -27 5 -17 3 -20 -7 -10 -15 14 -6 43 12 42 9 0 9 -2 2 -5z m406 -15 c0
-6 -5 -7 -10 -4 -6 4 -17 1 -25 -5 -20 -17 -19 -5 1 14 16 16 34 13 34 -5z
m-220 -9 c-11 -7 -12 -10 -2 -10 7 0 10 -5 6 -11 -4 -8 -9 -7 -15 2 -8 14 9
44 20 34 3 -3 -1 -10 -9 -15z m860 -30 c-45 -35 -124 -19 -100 20 7 12 13 13
28 4 21 -14 72 -7 72 9 0 7 5 6 13 -2 10 -10 7 -16 -13 -31z m136 29 c5 -9 -1
-10 -22 -5 -27 7 -27 6 -10 -7 18 -13 18 -14 0 -21 -12 -5 -23 -2 -30 8 -6 9
-19 16 -28 16 -9 0 -16 5 -16 10 0 14 97 13 106 -1z m-3430 -52 c15 -1 20 -6
16 -19 -4 -15 -6 -15 -19 -3 -16 17 -30 19 -35 7 -1 -4 -11 0 -21 10 -17 18
-16 18 10 12 16 -3 37 -6 49 -7z m2517 -4 c-3 -7 -6 -13 -8 -13 -2 0 -5 6 -8
13 -3 8 1 14 8 14 7 0 11 -6 8 -14z m807 7 c0 -5 -7 -10 -16 -10 -8 0 -12 5
-9 10 3 6 10 10 16 10 5 0 9 -4 9 -10z m-4226 -33 c-3 -9 -11 -17 -17 -17 -8
0 -8 3 0 11 6 6 9 19 6 28 -4 12 -3 13 6 5 6 -6 9 -18 5 -27z m4193 -9 c6 -22
23 -24 23 -3 0 8 7 15 15 15 21 0 13 -44 -9 -48 -10 -2 -24 5 -32 15 -11 13
-17 14 -20 6 -8 -19 -41 -16 -48 4 -9 22 18 43 46 35 11 -3 23 -13 25 -24z
m208 -8 c-3 -5 -11 -10 -16 -10 -6 0 -7 5 -4 10 3 6 11 10 16 10 6 0 7 -4 4
-10z m-1015 -10 c0 -5 -4 -10 -10 -10 -5 0 -10 5 -10 10 0 6 5 10 10 10 6 0
10 -4 10 -10z m671 -26 c-4 -16 -15 -31 -25 -32 -15 -3 -17 1 -11 20 6 21 35
52 41 45 2 -2 0 -16 -5 -33z m-501 11 c0 -8 -7 -15 -15 -15 -8 0 -15 -4 -15
-10 0 -5 -8 -10 -17 -10 -13 0 -11 5 10 18 15 9 27 20 27 24 0 5 2 8 5 8 3 0
5 -7 5 -15z m-3600 -5 c0 -5 -4 -10 -10 -10 -5 0 -10 5 -10 10 0 6 5 10 10 10
6 0 10 -4 10 -10z m-106 -16 c3 -8 2 -12 -4 -9 -6 3 -10 10 -10 16 0 14 7 11
14 -7z m4096 2 c0 -3 -4 -8 -10 -11 -5 -3 -10 -1 -10 4 0 6 5 11 10 11 6 0 10
-2 10 -4z m251 -26 c-13 -11 -28 -20 -35 -20 -6 1 0 10 13 20 13 11 28 20 35
20 6 -1 0 -10 -13 -20z m-4256 -12 c-3 -32 -3 -32 -20 -18 -12 10 -13 16 -4
26 17 21 27 17 24 -8z m3565 -9 c0 -6 -4 -7 -10 -4 -5 3 -10 11 -10 16 0 6 5
7 10 4 6 -3 10 -11 10 -16z m50 11 c0 -5 -5 -10 -11 -10 -5 0 -7 5 -4 10 3 6
8 10 11 10 2 0 4 -4 4 -10z m20 -20 c0 -5 -5 -10 -11 -10 -5 0 -7 5 -4 10 3 6
8 10 11 10 2 0 4 -4 4 -10z m-3620 -41 c0 -9 -31 -21 -38 -14 -3 3 1 5 9 5 12
0 11 2 -1 10 -12 7 -10 9 8 7 12 0 22 -4 22 -8z m3725 -9 c-3 -6 1 -17 10 -26
22 -22 10 -30 -20 -14 -29 16 -33 37 -7 43 9 3 18 5 20 6 2 0 0 -4 -3 -9z
m-652 -7 c-7 -2 -13 -14 -14 -26 0 -12 -3 -16 -6 -9 -7 18 4 42 19 41 10 0 10
-2 1 -6z m748 -9 c11 -14 10 -16 -6 -13 -11 2 -26 0 -32 -4 -15 -9 -16 -6 -7
17 8 20 28 20 45 0z m-3801 -4 c0 -13 -28 -25 -38 -16 -3 4 0 11 8 16 20 13
30 12 30 0z m3515 -20 c3 -5 -1 -10 -10 -10 -9 0 -13 5 -10 10 3 6 8 10 10 10
2 0 7 -4 10 -10z m305 -4 c0 -3 -4 -8 -10 -11 -5 -3 -10 -1 -10 4 0 6 5 11 10
11 6 0 10 -2 10 -4z m54 -11 c3 -8 1 -15 -3 -15 -5 0 -11 7 -15 15 -3 8 -1 15
3 15 5 0 11 -7 15 -15z m-190 -4 c3 -5 -1 -12 -10 -15 -8 -3 -13 -2 -9 3 3 5
-1 12 -7 14 -8 4 -7 6 4 6 9 1 19 -3 22 -8z m-3704 -5 c0 -3 -4 -8 -10 -11 -5
-3 -10 -1 -10 4 0 6 5 11 10 11 6 0 10 -2 10 -4z m3595 -6 c-3 -5 -12 -10 -18
-10 -7 0 -6 4 3 10 19 12 23 12 15 0z m369 -5 c3 -8 1 -15 -3 -15 -5 0 -11 7
-15 15 -3 8 -1 15 3 15 5 0 11 -7 15 -15z m22 -32 c-11 -11 -17 4 -9 23 7 18
8 18 11 1 2 -10 1 -21 -2 -24z m67 7 c-6 -24 -16 -25 -37 -4 -22 21 -20 24 13
24 24 0 28 -3 24 -20z m108 -43 c29 -33 38 -54 17 -41 -7 5 -8 3 -4 -5 5 -7
15 -10 23 -7 9 4 13 1 10 -6 -2 -7 -10 -12 -16 -10 -7 1 -10 -2 -6 -8 4 -7 12
-7 25 0 10 5 21 10 24 10 12 0 56 -80 56 -101 0 -32 -32 -79 -53 -79 -12 0
-17 -5 -14 -14 3 -8 0 -17 -8 -20 -10 -3 -12 0 -8 12 6 15 5 15 -10 3 -10 -8
-17 -9 -17 -3 0 6 -7 17 -15 26 -13 13 -13 15 5 21 12 4 27 2 35 -5 9 -7 15
-7 19 -1 4 6 13 8 20 5 7 -3 16 1 18 8 4 8 -3 14 -18 14 -13 1 -21 -2 -18 -7
3 -5 0 -9 -6 -9 -6 0 -10 10 -8 23 2 15 -2 21 -11 19 -10 -2 -12 1 -4 10 15
21 13 58 -4 65 -8 3 -19 0 -24 -8 -5 -8 -9 -9 -9 -3 0 6 3 14 8 18 8 9 10 29
2 36 -3 3 -13 22 -22 43 -11 23 -25 37 -36 37 -10 0 -19 7 -19 14 0 20 30 4
68 -37z m-4214 37 c-3 -3 -12 -4 -19 -1 -8 3 -5 6 6 6 11 1 17 -2 13 -5z
m3098 -13 c3 -5 2 -12 -3 -15 -5 -3 -9 1 -9 9 0 17 3 19 12 6z m885 -12 c0 -5
-7 -9 -15 -9 -15 0 -20 12 -9 23 8 8 24 -1 24 -14z m201 -25 c6 -18 4 -20 -19
-16 -15 3 -22 7 -15 9 7 2 9 11 6 20 -4 10 -2 14 7 11 7 -2 16 -13 21 -24z
m-4151 -27 c0 -5 -4 -5 -10 -2 -5 3 -10 14 -10 23 0 15 2 15 10 2 5 -8 10 -19
10 -23z m-40 -2 c-7 -9 -15 -13 -17 -11 -6 6 20 36 26 30 2 -2 -2 -10 -9 -19z
m3894 -6 c-3 -5 -10 -7 -15 -3 -5 3 -7 10 -3 15 3 5 10 7 15 3 5 -3 7 -10 3
-15z m284 -56 c0 -23 -1 -23 -19 7 -11 17 -19 38 -19 48 0 14 4 12 19 -7 10
-13 19 -35 19 -48z m-4133 37 c-3 -5 -13 -10 -21 -10 -8 0 -12 5 -9 10 3 6 13
10 21 10 8 0 12 -4 9 -10z m4086 -2 c1 -7 1 -19 0 -27 -2 -7 2 -10 8 -6 6 3
11 4 11 1 0 -2 2 -11 5 -18 4 -11 -3 -13 -30 -10 -19 2 -37 8 -40 12 -3 5 4 6
15 3 14 -4 20 0 20 11 0 9 -8 17 -17 17 -17 1 -17 2 0 6 9 2 15 9 12 14 -4 5
-1 9 4 9 6 0 12 -6 12 -12z m-51 -12 c0 -3 -4 -8 -10 -11 -5 -3 -10 -1 -10 4
0 6 5 11 10 11 6 0 10 -2 10 -4z m130 -16 c0 -11 -4 -20 -8 -20 -4 0 -8 9 -9
20 -1 11 2 20 8 20 5 0 9 -9 9 -20z m-4200 -30 c0 -12 -8 -12 -35 0 -18 8 -17
9 8 9 15 1 27 -3 27 -9z m4112 -32 c-9 -9 -15 -9 -24 0 -9 9 -7 12 12 12 19 0
21 -3 12 -12z m-4092 -68 c0 -5 -7 -10 -16 -10 -8 0 -12 5 -9 10 3 6 10 10 16
10 5 0 9 -4 9 -10z m4030 -75 c7 -9 8 -15 2 -15 -5 0 -12 7 -16 15 -3 8 -4 15
-2 15 2 0 9 -7 16 -15z m185 5 c3 -5 1 -10 -4 -10 -6 0 -11 5 -11 10 0 6 2 10
4 10 3 0 8 -4 11 -10z m-140 -40 c3 -5 1 -10 -4 -10 -6 0 -11 5 -11 10 0 6 2
10 4 10 3 0 8 -4 11 -10z m95 -5 c0 -12 -19 -12 -23 0 -4 9 -1 12 9 8 7 -3 14
-7 14 -8z m-23 -31 c-3 -3 -12 -4 -19 -1 -8 3 -5 6 6 6 11 1 17 -2 13 -5z
m253 -54 c0 -5 -5 -10 -11 -10 -5 0 -7 5 -4 10 3 6 8 10 11 10 2 0 4 -4 4 -10z
m-85 -30 c3 -5 1 -10 -4 -10 -6 0 -11 5 -11 10 0 6 2 10 4 10 3 0 8 -4 11 -10z
m68 -14 c4 -10 1 -13 -9 -9 -7 3 -14 -1 -14 -8 0 -7 -3 -9 -6 -6 -4 4 -1 13 6
22 15 19 17 19 23 1z m-63 -16 c0 -5 -4 -10 -10 -10 -5 0 -10 5 -10 10 0 6 5
10 10 10 6 0 10 -4 10 -10z m-75 -20 c-3 -5 -14 -10 -23 -9 -14 0 -13 2 3 9
27 11 27 11 20 0z m95 -16 c0 -2 -9 -4 -20 -4 -11 0 -20 4 -20 9 0 5 9 7 20 4
11 -3 20 -7 20 -9z m50 -88 c0 -2 -9 -6 -20 -9 -11 -3 -20 -1 -20 4 0 5 9 9
20 9 11 0 20 -2 20 -4z m46 -69 c4 -4 -2 -7 -14 -7 -12 0 -22 4 -22 9 0 10 26
9 36 -2z"/>
<path d="M3470 1610 c8 -5 20 -10 25 -10 6 0 3 5 -5 10 -8 5 -19 10 -25 10 -5
0 -3 -5 5 -10z"/>
<path d="M390 1450 c-8 -5 -11 -12 -7 -16 4 -4 13 -2 19 4 15 15 7 24 -12 12z"/>
<path d="M296 1355 c-3 -9 -4 -21 0 -26 3 -5 0 -9 -5 -9 -6 0 -11 -5 -11 -11
0 -17 22 -5 31 17 4 12 4 26 -1 33 -5 10 -9 8 -14 -4z"/>
<path d="M3833 1468 c-6 -7 -7 -22 -3 -33 6 -17 8 -15 13 10 6 35 4 40 -10 23z"/>
<path d="M3914 1444 c-16 -7 -5 -44 12 -44 16 0 19 16 4 25 -6 4 -8 11 -5 16
7 10 6 10 -11 3z"/>
<path d="M4045 1260 c-13 -6 -15 -9 -5 -9 8 0 22 4 30 9 18 12 2 12 -25 0z"/>
<path d="M4050 1239 c-14 -6 -29 -17 -33 -25 -5 -8 -13 -11 -19 -8 -7 4 -8 2
-4 -4 9 -15 11 -15 31 4 12 13 18 14 31 4 8 -7 17 -10 21 -7 3 4 -2 9 -11 13
-15 6 -15 7 1 20 21 16 17 16 -17 3z"/>
<path d="M4110 1246 c0 -2 9 -6 20 -9 11 -3 18 -1 14 4 -5 9 -34 13 -34 5z"/>
<path d="M1455 3872 c-3 -3 -5 -10 -5 -15 0 -6 3 -7 7 -4 3 4 12 2 20 -4 10
-9 13 -8 13 2 0 11 2 11 10 -1 5 -8 10 -10 10 -5 0 24 -39 43 -55 27z"/>
<path d="M1510 3876 c0 -2 7 -6 15 -10 8 -3 15 -1 15 4 0 6 -7 10 -15 10 -8 0
-15 -2 -15 -4z"/>
<path d="M1580 3784 c0 -8 5 -12 10 -9 6 4 8 11 5 16 -9 14 -15 11 -15 -7z"/>
<path d="M391 3721 c0 -7 -7 -11 -14 -8 -8 3 -13 -3 -13 -14 0 -21 5 -23 24
-10 8 5 12 17 9 27 -3 11 -5 13 -6 5z"/>
<path d="M980 3709 c0 -5 5 -7 10 -4 6 3 10 8 10 11 0 2 -4 4 -10 4 -5 0 -10
-5 -10 -11z"/>
<path d="M326 3649 c-9 -13 -16 -31 -16 -41 0 -10 -4 -18 -10 -18 -27 0 -96
-196 -110 -315 -23 -189 -24 -231 -6 -284 9 -27 16 -59 16 -71 0 -12 12 -65
26 -118 15 -54 27 -125 28 -159 0 -33 4 -59 9 -56 4 2 7 -8 7 -22 0 -14 -4
-24 -9 -21 -5 3 -11 -1 -15 -9 -3 -9 0 -15 9 -15 8 0 15 -4 15 -10 0 -5 -4
-10 -9 -10 -5 0 -11 -16 -13 -35 -3 -23 0 -34 7 -31 6 2 12 -8 13 -22 2 -27
-24 -54 -48 -47 -17 4 -115 8 -177 6 -35 -1 -43 -4 -43 -20 0 -27 37 -37 59
-17 13 12 29 14 70 9 29 -3 47 -9 41 -13 -7 -4 22 -11 64 -15 42 -3 78 -11 82
-16 3 -5 2 -9 -3 -9 -4 -1 -61 -1 -126 -2 -65 0 -120 -5 -123 -9 -2 -5 -19 -6
-37 -3 -23 3 -16 -2 23 -17 30 -12 49 -24 43 -26 -7 -3 -13 -9 -13 -14 0 -14
27 -11 43 5 10 10 34 13 83 12 41 -2 80 3 95 10 27 13 27 15 34 151 4 76 5
210 1 298 -8 173 -9 188 -26 285 -6 36 -14 81 -17 100 -6 48 -4 205 4 265 4
28 6 54 5 58 -1 5 3 27 9 50 15 52 19 67 22 92 1 11 8 25 15 30 16 13 19 72 5
86 -7 7 -16 4 -27 -12z m5 -32 c-10 -9 -11 -8 -5 6 3 10 9 15 12 12 3 -3 0
-11 -7 -18z"/>
<path d="M1640 3656 c0 -9 5 -16 10 -16 6 0 10 4 10 9 0 6 -4 13 -10 16 -5 3
-10 -1 -10 -9z"/>
<path d="M1418 3473 c-8 -10 -5 -13 15 -13 14 0 27 6 30 13 3 8 -3 13 -15 13
-10 0 -24 -6 -30 -13z"/>
<path d="M1210 3316 c-24 -14 -24 -14 10 -11 19 1 34 6 33 11 -3 14 -17 14
-43 0z"/>
<path d="M1295 3320 c3 -5 11 -10 16 -10 6 0 7 5 4 10 -3 6 -11 10 -16 10 -6
0 -7 -4 -4 -10z"/>
<path d="M550 3240 c0 -5 -6 -10 -14 -10 -7 0 -16 -9 -19 -20 -6 -23 1 -25 26
-5 11 7 25 11 32 9 10 -4 12 1 8 15 -5 21 -33 30 -33 11z"/>
<path d="M615 3240 c-3 -5 -1 -10 4 -10 6 0 11 5 11 10 0 6 -2 10 -4 10 -3 0
-8 -4 -11 -10z"/>
<path d="M625 3160 c-3 -5 1 -10 9 -10 9 0 16 5 16 10 0 6 -4 10 -9 10 -6 0
-13 -4 -16 -10z"/>
<path d="M622 3045 c-13 -7 -19 -15 -14 -19 5 -3 17 3 27 14 21 23 19 23 -13
5z"/>
<path d="M510 3000 c0 -5 7 -7 15 -4 8 4 15 8 15 10 0 2 -7 4 -15 4 -8 0 -15
-4 -15 -10z"/>
<path d="M455 2979 c-12 -19 5 -23 22 -6 16 16 16 17 1 17 -9 0 -20 -5 -23
-11z"/>
<path d="M788 2973 c7 -3 16 -2 19 1 4 3 -2 6 -13 5 -11 0 -14 -3 -6 -6z"/>
<path d="M415 2930 c-3 -6 1 -7 9 -4 18 7 21 14 7 14 -6 0 -13 -4 -16 -10z"/>
<path d="M18 2483 c6 -2 18 -2 25 0 6 3 1 5 -13 5 -14 0 -19 -2 -12 -5z"/>
<path d="M0 2230 c0 -13 7 -20 20 -20 11 0 20 3 20 8 0 4 -9 13 -20 20 -18 11
-20 10 -20 -8z"/>
<path d="M307 2200 c-3 -11 -1 -23 4 -26 5 -3 9 6 9 20 0 31 -6 34 -13 6z"/>
<path d="M216 2201 c-27 -10 -8 -19 37 -18 21 1 36 6 34 11 -4 13 -45 16 -71
7z"/>
<path d="M119 2183 c-13 -15 -11 -16 21 -9 47 9 63 26 23 26 -17 0 -37 -8 -44
-17z"/>
<path d="M348 2113 c-6 -12 -4 -26 10 -48 10 -17 11 -15 5 15 -7 39 -9 45 -15
33z"/>
<path d="M0 1994 l0 -46 48 6 c26 3 77 8 115 11 37 4 67 10 67 15 0 5 -26 13
-57 19 -32 6 -81 18 -109 26 -28 8 -54 15 -57 15 -4 0 -7 -21 -7 -46z"/>
<path d="M4837 733 c-13 -13 -7 -32 8 -27 8 4 15 12 15 20 0 15 -12 19 -23 7z"/>
</g>
</svg>
